# xmcd
#
# Track frame offsets: 
#        150
#        26182
#        51713
#        75948
#        98684
#        117583
#        141108
#        160564
#        187011
#        211803
#        236338
#        257118
#
# Disc length: 3770 seconds
#
# Revision: 0
# Processed by: cddbd v1.5.2PL0 Copyright (c) Steve Scherf et al.
# Submitted via: ExactAudioCopy v1.0b3
#
DISCID=a00eb80c
DTITLE=Truong Vu - Nhung Tinh Khuc Bat Hu 2
DYEAR=2002
DGENRE=
TTITLE0=Vung ngoai o
TTITLE1=Gia biet Sai Gon
TTITLE2=Ngay em con ben toi
TTITLE3=Nhung chuyen xe trong doi
TTITLE4=Ke o mien xa
TTITLE5=Sau nhung lan moi goi
TTITLE6=Thuong tinh nhan
TTITLE7=Chap tay lay Nguoi
TTITLE8=Con duong mang ten em
TTITLE9=Tinh nhu may khoi
TTITLE10=Pho vang
TTITLE11=Noi buon sa mac
EXTD=
EXTT0=
EXTT1=
EXTT2=
EXTT3=
EXTT4=
EXTT5=
EXTT6=
EXTT7=
EXTT8=
EXTT9=
EXTT10=
EXTT11=
PLAYORDER=
